<svg width="30" height="28" viewBox="0 0 30 28" fill="none" xmlns="http://www.w3.org/2000/svg">
<path d="M27.0009 15.4987H26.5009V15.9987V26.9988C26.5009 27.2746 26.2767 27.4988 26.0009 27.4988H20.5009V20.9988C20.5009 17.9656 18.034 15.4987 15.0009 15.4987C11.9677 15.4987 9.50088 17.9656 9.50088 20.9988V27.4988H4.00088C3.72502 27.4988 3.50088 27.2746 3.50088 26.9988V15.9987V15.4987H3.00088H2.23588C1.50599 15.4987 0.872046 15.0597 0.614002 14.3721C0.355879 13.6843 0.5445 12.9347 1.09468 12.4544L1.10232 12.4478L1.10968 12.4408L12.7886 1.38092C14.0298 0.206297 15.973 0.206464 17.2131 1.3808L17.5541 1.02066L17.2131 1.3808L28.9201 12.4668L28.9276 12.4739L28.9353 12.4807C29.4516 12.9306 29.6466 13.6786 29.3868 14.3711C29.1286 15.059 28.4944 15.4987 27.7649 15.4987H27.0009Z" stroke="white"/>
</svg>
